PathFileType	4	(X/Y/Z)	C:/Users/opensim2020/Desktop/walking_exp_matlab/subject02_walking11_straight_03.trc																																																																																																																												
DataRate	CameraRate	NumFrames	NumMarkers	Units	OrigDataRate	OrigDataStartFrame	OrigNumFrames																																																																																																																								
100	100	4	42	mm	100	2536	250																																																																																																																								
Frame#	Time	LFHD			RFHD			LBHD			RBHD			C7			T10			CLAV			STRN			RBAK			LSHO			LUPA			LELB			LFRM			LWRA			LWRB			LFIN			RSHO			RUPA			RELB			RFRM			RWRA			RWRB			RFIN			LASI			RASI			LPSI			RPSI			LTHI			LKNE			LTIB			LANK			LHEE			LTOE			RTHI			RKNE			RTIB			RANK			RHEE			RTOE			*39			*40			*41		
		X1	Y1	Z1	X2	Y2	Z2	X3	Y3	Z3	X4	Y4	Z4	X5	Y5	Z5	X6	Y6	Z6	X7	Y7	Z7	X8	Y8	Z8	X9	Y9	Z9	X10	Y10	Z10	X11	Y11	Z11	X12	Y12	Z12	X13	Y13	Z13	X14	Y14	Z14	X15	Y15	Z15	X16	Y16	Z16	X17	Y17	Z17	X18	Y18	Z18	X19	Y19	Z19	X20	Y20	Z20	X21	Y21	Z21	X22	Y22	Z22	X23	Y23	Z23	X24	Y24	Z24	X25	Y25	Z25	X26	Y26	Z26	X27	Y27	Z27	X28	Y28	Z28	X29	Y29	Z29	X30	Y30	Z30	X31	Y31	Z31	X32	Y32	Z32	X33	Y33	Z33	X34	Y34	Z34	X35	Y35	Z35	X36	Y36	Z36	X37	Y37	Z37	X38	Y38	Z38	X39	Y39	Z39	X40	Y40	Z40	X41	Y41	Z41	X42	Y42	Z42
																																																																																																																															
157	1.56	309.27243	1752.9668	1454.82556	314.84583	1738.95313	1598.37878	207.40862	1641.90198	1449.67151	201.73167	1622.24768	1591.67603	178.18922	1521.16663	1517.11646	122.11874	1247.69873	1517.38391	315.84787	1454.10327	1506.3501	365.56558	1279.57288	1508.86255	118.19499	1348.84729	1574.922	255.54793	1504.57007	1336.81763	246.33583	1306.64404	1251.07471	244.11995	1163.97449	1237.52539	272.40213	1033.44458	1225.68188	349.48462	920.08209	1256.87036	303.61377	913.76605	1224.49109	333.89877	853.73669	1223.36523	254.39572	1478.79785	1703.55103	220.14801	1284.021	1779.87329	232.8188	1139.13904	1794.54187	257.79221	1024.40173	1820.901	310.00159	897.66638	1815.33545	257.12363	894.53888	1835.88245	293.04877	832.57697	1849.13074	348.05707	981.14325	1376.06958	367.80115	979.57129	1630.04163	144.73174	1025.09619	1471.15771	148.1801	1030.42358	1586.98743	279.38965	672.34644	1308.40234	252.97482	487.33496	1316.86792	103.7432	374.9743	1330.00085	-25.0388	193.49664	1354.89172	-53.71849	182.08311	1416.03882	53.73096	70.43035	1299.77856	333.39026	676.59662	1699.08276	355.8006	468.77612	1653.05469	323.03882	281.80624	1655.19055	310.06195	90.91769	1611.72949	276.87891	38.36273	1555.67578	462.8703	38.41762	1629.49304	192.28543	1785.72388	1544.00146	NaN	NaN	NaN	NaN	NaN	NaN
158	1.57	317.0556	1754.33069	1456.50208	322.78986	1740.29956	1600.02869	215.33247	1643.14868	1451.39063	209.60291	1623.40881	1593.1156	186.25577	1522.7854	1519.16162	129.39828	1249.34167	1520.04675	323.64954	1455.24255	1507.85425	372.99792	1280.5365	1510.28821	125.96793	1350.82715	1577.7334	262.84399	1505.50403	1338.43494	252.44962	1307.27246	1253.46423	248.82262	1164.73511	1240.43762	274.99329	1033.8877	1228.43542	349.6351	918.63104	1259.23889	303.6109	913.49091	1226.78101	332.21149	852.51538	1226.18213	263.53815	1480.40002	1705.4325	229.66885	1285.27344	1782.06299	242.92352	1140.31213	1796.78027	269.49008	1025.92175	1823.08069	323.12463	899.92871	1817.08289	270.64993	896.24542	1838.01233	307.3063	834.77234	1851.06042	354.83316	982.54956	1376.7821	374.83865	980.2998	1631.7605	151.50972	1026.56714	1473.62256	155.22154	1031.83765	1589.23511	291.17224	674.19922	1309.32178	268.01535	489.04398	1317.83398	120.10273	375.48837	1332.94775	-6.5583	192.47293	1357.9679	-34.46771	179.61716	1419.27478	74.9649	71.92746	1301.05725	337.82373	676.7005	1700.02502	356.81384	468.48734	1653.59229	322.81961	281.96341	1655.51917	310.07944	90.9763	1611.64014	277.1315	38.32098	1555.59924	462.88171	38.37239	1629.5061	200.21094	1787.13647	1546.05408	NaN	NaN	NaN	NaN	NaN	NaN
159	1.58	325.0231	1755.59644	1458.12463	330.71848	1741.50037	1601.53931	223.23759	1644.32861	1453.04688	217.55438	1624.58765	1594.69653	193.95958	1524.22095	1521.13025	136.6136	1250.99377	1522.61682	331.45267	1456.27686	1509.26379	380.37442	1281.45679	1511.62573	133.81801	1352.94043	1580.81812	270.11594	1506.35229	1340.06787	258.26663	1307.80994	1255.6521	253.05894	1165.44653	1242.92798	276.83575	1034.20947	1230.72791	349.86014	917.46997	1261.31738	303.58072	913.4472	1228.96191	330.59799	851.44	1228.71509	272.39224	1481.78845	1706.84106	239.57632	1286.87231	1784.65063	253.24139	1141.70764	1799.20483	281.10059	1027.33655	1824.97595	336.49194	902.40601	1818.81323	284.09082	897.84344	1839.8374	321.71378	837.04187	1852.8064	361.40741	983.99023	1377.80249	381.65332	981.14392	1633.38159	158.13428	1028.09399	1475.89478	162.21587	1033.03918	1591.27271	302.49344	676.26685	1310.34753	282.72528	490.72528	1318.88501	136.63019	375.37378	1335.67358	13.56016	189.79526	1361.01733	-14.40056	176.19469	1422.33862	96.93362	72.27946	1302.4801	341.29962	676.57928	1700.56213	358.13281	468.59097	1654.4137	322.97931	282.02704	1655.87866	310.12671	91.03818	1611.62573	276.41028	39.10668	1555.54712	462.86148	38.33585	1629.54114	207.93015	1788.20203	1547.43469	NaN	NaN	NaN	NaN	NaN	NaN
160	1.59	332.88107	1756.77917	1459.64734	338.57571	1742.62097	1602.96777	231.07265	1645.41309	1454.50134	225.45726	1625.65112	1596.13025	201.77272	1525.46326	1522.96643	143.78018	1252.55493	1525.11108	339.23386	1457.19373	1510.64697	387.66904	1282.28931	1513.06677	141.39247	1354.74512	1583.53503	277.40549	1507.12939	1341.67468	264.12042	1308.36743	1257.82056	257.43469	1166.21729	1245.45825	279.37469	1034.67822	1232.94958	350.86609	916.75037	1263.1853	303.54779	913.44794	1230.83264	329.10995	850.57794	1230.93091	281.5267	1483.24231	1708.56494	249.46896	1288.33044	1786.91162	263.85654	1143.27759	1801.7876	293.19363	1029.198	1827.15381	349.87399	904.7652	1820.22571	297.6593	899.52545	1841.54175	336.41367	839.44073	1854.55298	368.08624	985.56195	1378.92407	388.2814	982.05615	1635.00903	164.82117	1029.52039	1477.87415	169.00832	1034.12524	1593.06323	313.74329	678.20532	1311.38416	297.05219	492.29578	1319.98242	153.09959	374.6785	1338.15833	33.7727	186.6216	1363.94385	6.40901	171.9792	1425.35315	119.86367	72.04738	1304.10168	344.71997	677.08325	1701.54041	359.29593	468.51797	1655.01514	323.53717	282.09222	1656.30823	310.18948	91.11108	1611.66223	276.55826	39.07188	1555.35938	462.84085	38.30147	1629.59216	215.87599	1789.40283	1549.16711	NaN	NaN	NaN	NaN	NaN	NaN
